<?xml version="1.0" encoding="utf-8"?>
<!-- Generator: Adobe Illustrator 16.0.0, SVG Export Plug-In . SVG Version: 6.00 Build 0)  -->
<!DOCTYPE svg PUBLIC "-//W3C//DTD SVG 1.1//EN" "http://www.w3.org/Graphics/SVG/1.1/DTD/svg11.dtd">
<svg version="1.1" id="Layer_1" xmlns="http://www.w3.org/2000/svg" xmlns:xlink="http://www.w3.org/1999/xlink" x="0px" y="0px"
	 width="837px" height="276px" viewBox="-495.008 -139.604 837 276" enable-background="new -495.008 -139.604 837 276"
	 xml:space="preserve">
<g>
	<path fill="#ED1C24" d="M37.73-76.172c-11.502,0-20.857,9.366-20.857,20.877c0,11.515,9.355,20.884,20.857,20.884
		c11.515,0,20.893-9.369,20.893-20.884C58.623-66.809,49.245-76.172,37.73-76.172z"/>
	<path fill="#ED1C24" d="M263.39-125.815c-23.066,0-43.547,11.079-56.411,28.205c-12.864-17.126-33.342-28.205-56.411-28.205
		c-23.072,0-43.554,11.083-56.416,28.216c-5.263-7.003-11.794-12.996-19.255-17.63l-0.086,59.934
		c0,20.46-16.634,37.105-37.081,37.105c-20.478,0-37.133-16.645-37.133-37.105c0-20.457,16.655-37.1,37.133-37.1
		c6.84,0,13.535,1.897,19.344,5.482l1.5,0.927l0.034-36.687c-6.594-2.04-13.598-3.139-20.86-3.139
		c-23.069,0-43.546,11.078-56.411,28.204c-12.865-17.126-33.339-28.204-56.409-28.204s-43.546,11.078-56.411,28.204
		c-12.867-17.126-33.342-28.204-56.411-28.204s-43.547,11.078-56.411,28.204c-12.865-17.126-33.342-28.204-56.411-28.204
		s-43.547,11.078-56.412,28.204c-12.867-17.126-33.342-28.204-56.411-28.204c-38.942,0-70.513,31.57-70.513,70.515
		c0,38.943,31.571,70.517,70.513,70.517c23.069,0,43.547-11.081,56.411-28.209c12.865,17.128,33.342,28.209,56.412,28.209
		s43.546-11.081,56.411-28.209c12.867,17.128,33.344,28.209,56.411,28.209c23.069,0,43.547-11.081,56.411-28.209
		C-118.618,4.139-98.141,15.22-75.072,15.22S-31.528,4.139-18.663-12.99C-5.798,4.139,14.681,15.22,37.748,15.22
		c23.07,0,43.547-11.081,56.412-28.209c12.864,17.128,33.342,28.209,56.411,28.209c23.072,0,43.547-11.081,56.411-28.209
		c12.864,17.128,33.345,28.209,56.411,28.209c38.944,0,70.516-31.574,70.516-70.517C333.909-94.245,302.336-125.815,263.39-125.815z
		"/>
	<path fill="#FFFFFF" d="M57.074-86.916c-5.809-3.585-12.5-5.482-19.344-5.482c-20.478,0-37.133,16.642-37.133,37.1
		c0,20.46,16.655,37.105,37.133,37.105c20.446,0,37.081-16.645,37.081-37.105l0.086-59.934c-5.044-3.134-10.504-5.655-16.289-7.448
		l-0.034,36.688L57.074-86.916z M37.73-34.414c-11.502,0-20.857-9.369-20.857-20.884c0-11.511,9.355-20.878,20.857-20.878
		c11.515,0,20.893,9.367,20.893,20.878C58.623-43.78,49.245-34.414,37.73-34.414z"/>
	<path fill="#FFFFFF" d="M150.584-18.192c-20.469,0-37.117-16.645-37.117-37.105c0-20.463,16.65-37.108,37.117-37.108
		c20.446,0,37.086,16.647,37.086,37.108S171.03-18.192,150.584-18.192z M150.584-76.172c-11.523,0-20.898,9.366-20.898,20.877
		c0,11.515,9.373,20.884,20.898,20.884c11.502,0,20.862-9.369,20.862-20.884C171.446-66.809,162.089-76.172,150.584-76.172z"/>
	<path fill="#FFFFFF" d="M263.401-18.192c-20.47,0-37.122-16.645-37.122-37.105c0-20.463,16.65-37.108,37.122-37.108
		c20.462,0,37.106,16.647,37.106,37.108S283.863-18.192,263.401-18.192z M263.401-76.172c-11.513,0-20.87,9.366-20.87,20.877
		c0,11.515,9.357,20.884,20.87,20.884c11.502,0,20.862-9.369,20.862-20.884C284.263-66.809,274.906-76.172,263.401-76.172z"/>
	<path fill="#FFFFFF" d="M-300.7-18.192c-20.472,0-37.127-16.645-37.127-37.105c0-20.463,16.655-37.108,37.127-37.108
		c20.446,0,37.08,16.647,37.08,37.108S-280.255-18.192-300.7-18.192z M-300.7-76.172c-11.513,0-20.878,9.366-20.878,20.877
		c0,11.515,9.365,20.884,20.878,20.884c11.494,0,20.856-9.369,20.856-20.884C-279.844-66.809-289.204-76.172-300.7-76.172z"/>
	<path fill="#FFFFFF" d="M-413.528-18.192c-20.472,0-37.127-16.645-37.127-37.105c0-20.463,16.655-37.108,37.127-37.108
		c20.454,0,37.091,16.647,37.091,37.108S-393.074-18.192-413.528-18.192z M-413.528-76.172c-11.518,0-20.891,9.366-20.891,20.877
		c0,11.515,9.373,20.884,20.891,20.884c11.504,0,20.872-9.369,20.872-20.884C-392.656-66.809-402.024-76.172-413.528-76.172z"/>
	<path fill="#FFFFFF" d="M-73.8-18.173c-1.204,0-2.312-0.04-3.383-0.112l-0.863-0.059l-1.191-0.101
		c-18.785-2.083-32.954-17.93-32.954-36.858c0-20.471,16.647-37.124,37.114-37.124c20.459,0,37.109,16.653,37.109,37.124
		c0,2.484-0.203,4.593-0.681,7.024l-56.011-0.027l1.121,2.705c2.993,5.66,8.268,9.587,14.479,10.777
		c1.807,0.335,3.682,0.504,5.564,0.504l0.926-0.022c5.413-0.147,10.517-2.013,14.016-5.122l0.465-0.426l15.087,8.075l-0.696,0.788
		c-6.784,8.181-16.474,12.491-28.813,12.814C-72.958-18.185-73.364-18.173-73.8-18.173z M-75.074-76.172
		c-8.551,0-16.138,5.111-19.326,13.024l-0.096,0.236l38.793,0.045l-0.091-0.229C-58.933-71.042-66.505-76.172-75.074-76.172z"/>
	<path fill="#FFFFFF" d="M-222.801-20.058l0.034-35.218l0.06-2.047c1.076-19.654,17.357-35.055,37.065-35.055
		c14.11,0,26.795,7.851,33.149,20.502l-14.336,7.628c-3.448-7.235-10.816-11.9-18.813-11.9c-11.513,0-20.877,9.365-20.877,20.878
		l-0.016,35.209h-16.266V-20.058z"/>
	<g>
		<g>
			<path d="M57.321,101.189c-1.059,3.474-2.943,6.329-5.611,8.502c-2.673,2.179-5.951,3.313-9.729,3.375
				c-2.441,0-4.573-0.437-6.333-1.3c-1.763-0.868-3.219-2.052-4.342-3.523c-1.134-1.479-1.995-3.211-2.541-5.166
				c-0.556-1.971-0.845-4.04-0.845-6.17V71.212h-7.35v25.695c0,3.336,0.453,6.459,1.352,9.264c0.899,2.832,2.259,5.322,4.038,7.421
				c1.789,2.093,4.022,3.76,6.646,4.945c2.626,1.186,5.697,1.791,9.105,1.791c3.819,0,7.155-0.954,9.924-2.842
				c2.184-1.492,4.093-3.239,5.687-5.21v6.955h7.353V71.21h-7.353V101.189z"/>
			<path d="M106.299,95.473c-1.581-1.059-3.361-1.95-5.278-2.662c-1.914-0.71-3.798-1.339-5.595-1.88
				c-1.588-0.489-3.159-0.957-4.706-1.415c-1.513-0.449-2.891-0.967-4.098-1.56c-1.175-0.572-2.129-1.232-2.832-1.966
				c-0.65-0.681-0.97-1.461-0.97-2.395v-0.189c0-0.848,0.224-1.664,0.684-2.413c0.468-0.764,1.123-1.435,1.96-1.991
				c0.853-0.564,1.867-1.02,3.008-1.331c1.165-0.317,2.426-0.474,3.765-0.474c2.496,0,5.013,0.25,7.488,0.757
				c2.452,0.507,4.838,1.331,7.101,2.457l0.527,0.265l3.44-6.104l-0.59-0.283c-2.891-1.417-5.928-2.493-9.032-3.201
				c-3.104-0.702-5.987-1.061-8.572-1.061h-0.174c-2.369,0-4.631,0.333-6.75,0.983c-2.129,0.655-4.025,1.609-5.624,2.836
				c-1.62,1.238-2.904,2.743-3.819,4.49c-0.928,1.75-1.396,3.713-1.396,5.809v0.182c0,2.319,0.567,4.238,1.677,5.713
				c1.074,1.422,2.459,2.628,4.103,3.577c1.62,0.934,3.466,1.692,5.481,2.249c1.997,0.551,3.907,1.107,5.699,1.648
				c1.516,0.416,3.034,0.91,4.519,1.44c1.472,0.53,2.815,1.164,3.999,1.864c1.141,0.681,2.062,1.479,2.743,2.353
				c0.647,0.843,0.962,1.747,0.962,2.77v0.177c0,1.032-0.257,1.957-0.77,2.773c-0.528,0.832-1.253,1.555-2.14,2.138
				c-0.915,0.598-2.01,1.076-3.25,1.427c-1.25,0.347-2.558,0.518-3.887,0.518c-3.044,0-6.047-0.372-8.928-1.112
				c-2.868-0.738-5.592-1.903-8.078-3.438l-0.489-0.307l-4.196,5.735l0.554,0.358c1.544,0.988,3.25,1.862,5.073,2.605
				c1.82,0.744,3.653,1.368,5.455,1.852c1.796,0.488,3.609,0.863,5.369,1.107c1.76,0.247,3.403,0.372,4.867,0.372
				c2.426,0,4.761-0.325,6.932-0.98c2.192-0.66,4.147-1.628,5.806-2.886c1.669-1.264,3.04-2.811,4.045-4.607
				c1.017-1.825,1.534-3.937,1.534-6.281v-0.177c0-2.241-0.541-4.184-1.609-5.772C109.255,97.878,107.911,96.546,106.299,95.473z"/>
			<g>
				<path d="M126.339,52.695c-1.383,0-2.566,0.484-3.539,1.456c-0.967,0.967-1.461,2.161-1.461,3.546
					c0,1.378,0.494,2.563,1.461,3.528c0.962,0.967,2.155,1.463,3.539,1.463c1.381,0,2.572-0.496,3.539-1.463
					c0.973-0.965,1.464-2.156,1.464-3.528c0-1.388-0.491-2.579-1.464-3.546C128.913,53.174,127.72,52.695,126.339,52.695z"/>
				<rect x="122.525" y="71.207" width="7.353" height="48.021"/>
			</g>
			<path d="M181.651,76.849c-1.784-2.095-4.02-3.762-6.646-4.955c-2.624-1.186-5.688-1.784-9.105-1.784
				c-3.814,0-7.155,0.954-9.921,2.842c-2.184,1.487-4.09,3.237-5.691,5.21v-6.955h-7.347v48.021h7.347V89.24
				c1.063-3.468,2.946-6.323,5.613-8.499c2.67-2.171,5.944-3.314,9.732-3.372c2.438,0,4.57,0.442,6.338,1.305
				c1.758,0.863,3.211,2.049,4.337,3.513c1.125,1.479,1.981,3.214,2.54,5.166c0.559,1.977,0.842,4.051,0.842,6.167v25.704h7.353
				V93.52c0-3.325-0.452-6.437-1.354-9.253C184.789,81.436,183.429,78.939,181.651,76.849z"/>
			<path d="M284.72,95.473c-1.578-1.059-3.356-1.95-5.275-2.662c-1.918-0.71-3.796-1.339-5.6-1.88
				c-1.581-0.489-3.148-0.957-4.701-1.415c-1.519-0.449-2.889-0.967-4.1-1.56c-1.176-0.572-2.13-1.232-2.837-1.966
				c-0.65-0.681-0.957-1.461-0.957-2.395v-0.189c0-0.848,0.222-1.664,0.684-2.413c0.458-0.764,1.121-1.435,1.95-1.991
				c0.853-0.564,1.869-1.02,3.014-1.331c1.159-0.317,2.42-0.474,3.752-0.474c2.501,0,5.021,0.25,7.492,0.757
				c2.457,0.507,4.839,1.331,7.101,2.457l0.53,0.265l3.443-6.104l-0.599-0.283c-2.894-1.417-5.925-2.493-9.026-3.201
				c-3.104-0.702-5.991-1.061-8.572-1.061h-0.185c-2.358,0-4.628,0.333-6.747,0.983c-2.13,0.655-4.02,1.609-5.624,2.836
				c-1.612,1.238-2.904,2.743-3.819,4.49c-0.926,1.75-1.396,3.713-1.396,5.809v0.182c0,2.319,0.567,4.238,1.68,5.713
				c1.079,1.422,2.463,2.628,4.111,3.577c1.611,0.934,3.46,1.692,5.478,2.249c1.986,0.551,3.908,1.107,5.699,1.648
				c1.511,0.416,3.031,0.91,4.514,1.44c1.474,0.53,2.818,1.164,3.996,1.864c1.146,0.681,2.067,1.479,2.748,2.353
				c0.645,0.843,0.965,1.747,0.965,2.77v0.177c0,1.032-0.263,1.957-0.775,2.773c-0.527,0.832-1.253,1.555-2.142,2.138
				c-0.91,0.598-2.002,1.076-3.248,1.427c-1.248,0.347-2.556,0.518-3.89,0.518c-3.036,0-6.039-0.372-8.92-1.112
				c-2.873-0.738-5.593-1.903-8.083-3.438l-0.486-0.307l-4.188,5.735l0.543,0.358c1.547,0.988,3.255,1.862,5.075,2.605
				c1.817,0.744,3.647,1.368,5.455,1.852c1.799,0.488,3.605,0.863,5.368,1.107c1.761,0.247,3.398,0.372,4.87,0.372
				c2.418,0,4.748-0.325,6.926-0.98c2.192-0.66,4.155-1.628,5.814-2.886c1.669-1.264,3.028-2.811,4.043-4.607
				c1.016-1.825,1.536-3.937,1.536-6.281v-0.177c0-2.241-0.544-4.184-1.609-5.772C287.679,97.878,286.336,96.546,284.72,95.473z"/>
			<path d="M332.737,99.433c-1.046-1.555-2.393-2.887-4.002-3.96c-1.583-1.059-3.358-1.95-5.28-2.662
				c-1.906-0.71-3.801-1.339-5.601-1.88c-1.583-0.489-3.153-0.957-4.703-1.415c-1.511-0.449-2.894-0.967-4.103-1.56
				c-1.173-0.572-2.122-1.232-2.831-1.966c-0.647-0.681-0.962-1.461-0.962-2.395v-0.189c0-0.848,0.226-1.664,0.686-2.413
				c0.463-0.764,1.126-1.435,1.953-1.991c0.855-0.564,1.869-1.02,3.019-1.331c1.154-0.317,2.415-0.474,3.746-0.474
				c2.499,0,5.019,0.25,7.499,0.757c2.454,0.507,4.838,1.331,7.092,2.457l0.528,0.265l3.439-6.104l-0.59-0.283
				c-2.892-1.417-5.928-2.493-9.024-3.201c-3.112-0.702-5.998-1.061-8.577-1.061h-0.185c-2.363,0-4.62,0.333-6.744,0.983
				c-2.13,0.655-4.025,1.609-5.621,2.836c-1.612,1.238-2.902,2.743-3.82,4.49c-0.933,1.75-1.398,3.713-1.398,5.809v0.182
				c0,2.319,0.569,4.238,1.683,5.713c1.073,1.422,2.459,2.628,4.103,3.577c1.619,0.934,3.466,1.692,5.483,2.249
				c1.994,0.551,3.899,1.107,5.699,1.648c1.508,0.416,3.039,0.91,4.516,1.44c1.479,0.53,2.818,1.164,3.991,1.864
				c1.149,0.681,2.072,1.479,2.751,2.353c0.647,0.843,0.959,1.747,0.959,2.77v0.177c0,1.032-0.26,1.957-0.77,2.773
				c-0.53,0.832-1.248,1.555-2.14,2.138c-0.913,0.598-2.002,1.076-3.242,1.427c-1.253,0.347-2.561,0.518-3.897,0.518
				c-3.044,0-6.045-0.372-8.923-1.112c-2.87-0.738-5.59-1.903-8.083-3.438l-0.486-0.307l-4.191,5.735l0.557,0.358
				c1.539,0.988,3.242,1.862,5.072,2.605c1.81,0.744,3.643,1.368,5.449,1.852c1.8,0.488,3.606,0.863,5.366,1.107
				c1.761,0.247,3.401,0.372,4.873,0.372c2.423,0,4.752-0.325,6.929-0.98c2.191-0.66,4.145-1.628,5.806-2.886
				c1.672-1.264,3.039-2.811,4.048-4.607c1.022-1.825,1.534-3.937,1.534-6.281v-0.177
				C334.348,102.963,333.808,101.021,332.737,99.433z"/>
			<path d="M-12.753,70.227c-6.866,0-13.104,2.795-17.625,7.298V51.411h-7.35V96.91l0.081-0.067
				c0.858,13.005,11.679,23.332,24.895,23.332c13.767,0,24.975-11.201,24.975-24.976C12.225,81.431,1.016,70.227-12.753,70.227z
				 M-12.753,113.077c-9.854,0-17.869-8.021-17.869-17.878c0-9.858,8.018-17.874,17.869-17.874c9.856,0,17.875,8.016,17.875,17.874
				C5.122,105.059-2.897,113.077-12.753,113.077z"/>
			<path d="M221.396,70.227c-13.767,0-24.973,11.204-24.973,24.972c0,13.774,11.206,24.976,24.973,24.976
				c9.947,0,18.527-5.86,22.542-14.295h-8.242c-3.261,4.363-8.45,7.197-14.3,7.197c-8.635,0-15.854-6.157-17.514-14.311h35.024
				h6.604h0.575c0.166-1.165,0.28-2.351,0.28-3.567C246.371,81.431,235.168,70.227,221.396,70.227z M221.396,77.327
				c8.546,0,15.704,6.032,17.456,14.063h-34.907C205.695,83.359,212.85,77.327,221.396,77.327z"/>
		</g>
	</g>
</g>
</svg>
